# xmcd
#
# Track frame offsets:
#	182
#	11322
#	21022
#	34700
#	44695
#	56992
#	68985
#	79522
#	91535
#	101522
#	114090
#	125247
#	135452
#	150112
#	160280
#	170400
#	182720
#	194710
#	205762
#	218175
#	230330
#	240960
#	255735
#	271632
#	287610
#	300172
#	316920
#
# Disc length: 4399 seconds
#
# Revision: 0
# Processed by: cddbd v1.5.2PL0 Copyright (c) Steve Scherf et al.
# Submitted via: audiograbber 1.83.01
#
DISCID=5a112d1b
DTITLE=Various Artist - COUNTRY BLUES/ COUNTRY RSA  CD 3
DYEAR=1900
DGENRE=Country
TTITLE0=JIM REEVES - SOMEDAY (YOU'LL WANT ME TO WANT YOU)
TTITLE1=SKEETER DAVIS - AM I THAT EASY TO FORGET
TTITLE2=CLIVE BRUCE - DEVIL WOMAN
TTITLE3=CONNIE FRANCIS - WALK ON BY
TTITLE4=DON WILLIAMS - YEARS FROM NOW
TTITLE5=SALLY VAUGHN - I FALL TO PIECES
TTITLE6=FRANK I FIELD - BLUE BAYOU
TTITLE7=CHARLEY PRIDE - FOLSOM PRISON BLUES
TTITLE8=LORETTA LYNN - I STILL MISS SOMEONE
TTITLE9=CLIVE BRUCE - SEVEN SPANISH ANGELS
TTITLE10=CHET ATKINS - HEARTBREAK HOTEL
TTITLE11=JIM REEVES - IS IT REALLY OVER
TTITLE12=CRYSTAL GALE - CRY ME A RIVER
TTITLE13=MATT HURTER - SOME BROKEN HEARS NEVER MEND
TTITLE14=CONNIE FRANCIS - SINGING THE BLUES
TTITLE15=TOMMY DELL - HEAVEN IS MY WOMAN'S LOVE
TTITLE16=CARIKE KEUZENKAMP - LIEDJIE VAN DIE SEE
TTITLE17=SIAS REINECKE - MY HART SING VAN LIEFDE
TTITLE18=MAUREEN MOORE - MOCKING BIRD HILL
TTITLE19=TOMMY DELL and CAROLINE DU PREEZ - SAY FOREVER YOU'LL BE MINE
TTITLE20=CHARLIE DICK - MEDALS FOR MOTHERS
TTITLE21=BLES BRIDGES - RUITER VAN DIE WINDJIE
TTITLE22=KEN MULLAN - YOU ARE MY SPECIAL ANGEL
TTITLE23=VANGIE COKER - BARBARA'S DAUGHTER
TTITLE24=LANCE JAMES - LET ME BE THERE
TTITLE25=VIRGINIA LEE - GREEN GROW THE LILACS
TTITLE26=JODY WAYNE - SIXTEEN CANDLES
EXTD=
EXTT0=
EXTT1=
EXTT2=
EXTT3=
EXTT4=
EXTT5=
EXTT6=
EXTT7=
EXTT8=
EXTT9=
EXTT10=
EXTT11=
EXTT12=
EXTT13=
EXTT14=
EXTT15=
EXTT16=
EXTT17=
EXTT18=
EXTT19=
EXTT20=
EXTT21=
EXTT22=
EXTT23=
EXTT24=
EXTT25=
EXTT26=
PLAYORDER=
